<svg id="Layer_1" data-name="Layer 1" xmlns="http://www.w3.org/2000/svg" viewBox="0 0 425 193"><defs><style>.cls-1{fill:#000d30;}.cls-2{fill:#fff;}</style></defs><path class="cls-1" d="M133,331.5a23,23,0,0,0-22.45-22.45V162A23,23,0,0,0,133,139.5h379.1A23,23,0,0,0,534.5,162v147.1a23,23,0,0,0-22.45,22.45Z" transform="translate(-110 -139)"/><path class="cls-2" d="M511.56,140A23.49,23.49,0,0,0,534,162.44V308.56A23.49,23.49,0,0,0,511.56,331H133.44A23.49,23.49,0,0,0,111,308.56V162.44A23.49,23.49,0,0,0,133.44,140H511.56m1-1H132.46A22.47,22.47,0,0,1,110,161.46V309.54A22.47,22.47,0,0,1,132.46,332H512.54A22.47,22.47,0,0,1,535,309.54V161.46A22.47,22.47,0,0,1,512.54,139Z" transform="translate(-110 -139)"/></svg>